HIERARCHY
ROOT Hips
{
	OFFSET 0.00000 0.00000 0.00000
	CHANNELS 6 Xposition Yposition Zposition Zrotation Yrotation Xrotation 
	JOINT LHipJoint
	{
		OFFSET 0 0 0
		CHANNELS 3 Zrotation Yrotation Xrotation
		JOINT LeftUpLeg
		{
			OFFSET 1.48831 -1.59570 0.95625
			CHANNELS 3 Zrotation Yrotation Xrotation
			JOINT LeftLeg
			{
				OFFSET 2.20856 -6.06797 0.00000
				CHANNELS 3 Zrotation Yrotation Xrotation
				JOINT LeftFoot
				{
					OFFSET 2.62924 -7.22379 0.00000
					CHANNELS 3 Zrotation Yrotation Xrotation
					JOINT LeftToeBase
					{
						OFFSET 0.16802 -0.46163 2.41673
						CHANNELS 3 Zrotation Yrotation Xrotation
						End Site
						{
							OFFSET 0.00000 -0.00000 1.23760
						}
					}
				}
			}
		}
	}
	JOINT RHipJoint
	{
		OFFSET 0 0 0
		CHANNELS 3 Zrotation Yrotation Xrotation
		JOINT RightUpLeg
		{
			OFFSET -1.56796 -1.59570 0.95625
			CHANNELS 3 Zrotation Yrotation Xrotation
			JOINT RightLeg
			{
				OFFSET -2.29239 -6.29829 0.00000
				CHANNELS 3 Zrotation Yrotation Xrotation
				JOINT RightFoot
				{
					OFFSET -2.66963 -7.33475 0.00000
					CHANNELS 3 Zrotation Yrotation Xrotation
					JOINT RightToeBase
					{
						OFFSET -0.18185 -0.49964 2.34359
						CHANNELS 3 Zrotation Yrotation Xrotation
						End Site
						{
							OFFSET -0.00000 -0.00000 1.20477
						}
					}
				}
			}
		}
	}
	JOINT LowerBack
	{
		OFFSET 0 0 0
		CHANNELS 3 Zrotation Yrotation Xrotation
		JOINT Spine
		{
			OFFSET 0.03505 2.15832 -0.34324
			CHANNELS 3 Zrotation Yrotation Xrotation
			JOINT Spine1
			{
				OFFSET -0.01089 2.17963 0.04689
				CHANNELS 3 Zrotation Yrotation Xrotation
				JOINT Neck
				{
					OFFSET 0 0 0
					CHANNELS 3 Zrotation Yrotation Xrotation
					JOINT Neck1
					{
						OFFSET 0.04686 1.69404 0.22159
						CHANNELS 3 Zrotation Yrotation Xrotation
						JOINT Head
						{
							OFFSET 0.00265 1.69305 -0.01513
							CHANNELS 3 Zrotation Yrotation Xrotation
							End Site
							{
								OFFSET -0.00415 1.80215 -0.03034
							}
						}
					}
				}
				JOINT LeftShoulder
				{
					OFFSET 0 0 0
					CHANNELS 3 Zrotation Yrotation Xrotation
					JOINT LeftArm
					{
						OFFSET 3.67184 1.11724 -0.19002
						CHANNELS 3 Zrotation Yrotation Xrotation
						JOINT LeftForeArm
						{
							OFFSET 5.17714 -0.00000 -0.00000
							CHANNELS 3 Zrotation Yrotation Xrotation
							JOINT LeftHand
							{
								OFFSET 3.43679 -0.00000 -0.00000
								CHANNELS 3 Zrotation Yrotation Xrotation
								JOINT LeftFingerBase
								{
									OFFSET 0 0 0
									CHANNELS 3 Zrotation Yrotation Xrotation
									JOINT LeftHandIndex1
									{
										OFFSET 0.57312 -0.00000 -0.00000
										CHANNELS 3 Zrotation Yrotation Xrotation
										End Site
										{
											OFFSET 0.46206 -0.00000 -0.00000
										}
									}
								}
								JOINT LThumb
								{
									OFFSET 0 0 0
									CHANNELS 3 Zrotation Yrotation Xrotation
									End Site
									{
										OFFSET 0.46912 -0.00000 0.46912
									}
								}
							}
						}
					}
				}
				JOINT RightShoulder
				{
					OFFSET 0 0 0
					CHANNELS 3 Zrotation Yrotation Xrotation
					JOINT RightArm
					{
						OFFSET -3.59596 0.95831 -0.26050
						CHANNELS 3 Zrotation Yrotation Xrotation
						JOINT RightForeArm
						{
							OFFSET -5.23908 -0.00000 -0.00000
							CHANNELS 3 Zrotation Yrotation Xrotation
							JOINT RightHand
							{
								OFFSET -3.46485 -0.00000 -0.00000
								CHANNELS 3 Zrotation Yrotation Xrotation
								JOINT RightFingerBase
								{
									OFFSET 0 0 0
									CHANNELS 3 Zrotation Yrotation Xrotation
									JOINT RightHandIndex1
									{
										OFFSET -0.60875 -0.00000 -0.00000
										CHANNELS 3 Zrotation Yrotation Xrotation
										End Site
										{
											OFFSET -0.49079 -0.00000 -0.00000
										}
									}
								}
								JOINT RThumb
								{
									OFFSET 0 0 0
									CHANNELS 3 Zrotation Yrotation Xrotation
									End Site
									{
										OFFSET -0.49829 -0.00000 0.49829
									}
								}
							}
						}
					}
				}
			}
		}
	}
}
MOTION
Frames: 6
Frame Time: 0.0408163
0.00 0.00 0.00 0 0 0 0 0 0 -21 0 0 0 0 0 0 0 0 0 0 0 0 0 0 21 0 0 0 0 0 0 0 0 0 0 0 0 0 0 0 0 0 0 0 0 0 0 -16 0 0 21 0 0 11 0 0 0 -8 0 0 0 0 0 0 0 0 0 0 0 0 0 0 0 0 0 0 0 0 8 0 0 0 0 0 0 0 0 0 0 0 0 0 0 0 0 0
0.00 0.00 0.00 -3.4017 -58.7211 20.7066 0.0000 0.0000 0.0000 -20.4302 -6.3196 -44.5865 5.0703 13.4626 41.1257 0.8189 1.6504 -17.7673 0.0089 -0.6079 -1.6705 0.0000 0.0000 0.0000 12.9677 17.7122 -47.4205 -7.1988 -15.4971 49.6224 -0.9043 -9.2750 -23.5946 -0.0239 0.9982 -2.7438 2.6865 -1.5318 31.8813 0.1346 -1.6524 9.1063 -0.7710 -1.0154 -7.1369 1.9903 1.3965 21.1460 -0.7811 2.3754 -24.6980 -0.9914 0.9370 -11.5317 0.0000 -0.0000 0.0000 -78.2608 0.6092 41.3294 36.6870 -45.9799 -16.0146 -0.0000 0.0000 -36.3861 18.7631 6.5704 2.2260 -7.1250 0.0000 -0.0000 -6.7611 36.8416 1.3645 0.0000 -0.0000 0.0000 87.3581 1.2601 28.3357 -38.1786 46.9530 -17.0960 0.0000 -0.0000 -13.7723 -19.0483 -5.1893 1.7887 7.1250 -0.0000 -0.0000 6.3609 -35.4092 1.5064
0.00 0.00 0.00 -2.1896 -59.5539 19.1154 0.0000 0.0000 0.0000 -23.6205 -5.4922 -43.5510 5.6063 14.0357 43.3806 1.3330 -0.2961 -21.7449 0.0163 0.8238 2.2641 0.0000 0.0000 0.0000 7.6814 19.5432 -55.4956 -11.6754 -18.2500 64.9561 -0.0237 -13.0079 -18.7841 -0.3464 3.7815 -10.4629 1.7013 -1.0485 33.8118 -0.6845 -1.5239 10.1233 -1.0612 -0.9781 -6.1270 1.2812 1.2364 21.0418 -0.2492 2.0536 -24.0890 -0.6203 0.8005 -11.3018 0.0000 -0.0000 0.0000 -78.4539 -1.2975 39.1738 35.6289 -45.2560 -15.2583 -0.0000 0.0000 -35.6430 19.0466 6.9699 2.3989 -7.1250 0.0000 -0.0000 -6.5731 37.2772 1.2557 0.0000 -0.0000 0.0000 86.9026 2.3457 28.9278 -35.4219 45.1110 -15.1115 0.0000 -0.0000 -12.1811 -17.7755 -5.6726 1.8150 7.1250 -0.0000 -0.0000 7.4729 -35.8505 1.6922
0.00 0.00 0.00 4.4327 -61.1481 9.3930 0.0000 0.0000 0.0000 -28.3662 -2.9423 -38.1282 5.4016 13.8223 42.5302 1.5297 0.0731 -23.4307 0.0104 0.6590 1.8110 0.0000 0.0000 0.0000 3.5375 20.0363 -67.4776 -17.7139 -19.8742 83.3024 -0.3235 -13.2313 -22.2776 -0.2299 3.0865 -8.5196 -0.6456 -0.6170 35.6647 -2.3422 -2.1260 12.5628 -1.3551 -1.3436 -4.1620 0.5498 1.4245 21.7726 0.0023 2.1558 -25.0377 -0.4349 0.8690 -11.8175 0.0000 0.0000 0.0000 -77.3556 -1.8716 37.3376 37.2883 -46.3787 -16.4484 -0.0000 0.0000 -35.4855 19.0984 6.5672 2.2677 -7.1250 0.0000 -0.0000 -6.4791 36.8580 1.3044 0.0000 0.0000 0.0000 86.5694 3.2015 31.2425 -37.9297 46.7944 -16.9143 0.0000 -0.0000 -12.7210 -17.8369 -5.4051 1.7361 7.1250 -0.0000 -0.0000 7.3890 -35.5754 1.7229
0.00 0.00 0.00 13.2450 -62.9593 -0.8540 0.0000 0.0000 0.0000 -35.5142 5.0374 -20.0507 1.8886 8.6301 24.6450 1.3305 2.6210 -22.8738 0.0054 -0.4757 -1.3071 0.0000 0.0000 0.0000 -0.7394 25.4595 -65.1796 -3.6601 -11.6939 34.6574 -1.5009 -10.2391 -28.8469 -0.5172 4.6095 -12.7980 -3.3323 -0.5507 34.3151 -4.4901 -3.0163 11.3553 -1.8788 -1.7382 -5.0232 2.6827 1.3322 14.7478 1.0088 2.6303 -18.4309 -0.3981 0.9220 -8.1307 -0.0000 -0.0000 0.0000 -80.7110 4.2265 36.4304 27.6764 -38.8166 -9.9202 -0.0000 0.0000 -32.8771 18.6126 6.6421 2.2308 -7.1250 0.0000 -0.0000 -6.8966 36.9077 1.3810 -0.0000 -0.0000 0.0000 88.1162 -1.4537 31.1177 -31.8669 42.4408 -12.6509 0.0000 -0.0000 -10.8457 -19.9337 -4.9878 1.8060 7.1250 -0.0000 -0.0000 5.6069 -35.2388 1.3497
0.00 0.00 0.00 9.6602 -61.3780 8.1988 0.0000 0.0000 0.0000 -30.7341 6.1929 -19.9409 4.4727 12.7641 38.4918 0.0954 4.1986 -8.8590 1.7159 -8.2474 -23.4680 0.0000 0.0000 0.0000 6.5185 23.3369 -45.3062 -1.8696 -8.5889 24.5177 -0.4457 -9.8300 -19.7764 -0.3170 3.6193 -10.0079 -2.8907 -1.7374 25.9397 -2.7497 -3.5578 7.0207 -0.2507 -1.8276 -6.5924 3.3320 1.2901 6.3872 0.3939 2.0464 -5.3191 -0.5395 0.9286 -2.7775 0.0000 -0.0000 0.0000 -81.8286 7.5749 34.6650 24.4466 -35.6330 -7.9653 -0.0000 0.0000 -30.9162 18.8634 5.3922 1.8390 -7.1250 0.0000 -0.0000 -6.5367 35.6130 1.5159 0.0000 -0.0000 0.0000 87.0069 -4.4321 32.6074 -29.4391 40.4078 -11.0442 0.0000 -0.0000 -7.4853 -17.9225 -5.3406 1.7243 7.1250 -0.0000 -0.0000 7.3103 -35.5127 1.7155
